<svg height="512" viewBox="0 0 128 128" width="512" xmlns="http://www.w3.org/2000/svg"><g><g><circle cx="64" cy="64" fill="#ff7a8c" r="60"/><circle cx="64" cy="64" fill="#ecebfd" r="48.882" transform="matrix(.987 -.16 .16 .987 -9.425 11.078)"/><g fill="#696eaf"><path d="m66.275 53.052h-11.76a3.6 3.6 0 0 0 -3.605 3.6v.47a3.6 3.6 0 0 0 3.605 3.6 3.6 3.6 0 0 1 3.6 3.605v28.59a3.6 3.6 0 0 0 3.605 3.6h11.76a3.6 3.6 0 0 0 3.605-3.6v-.47a3.6 3.6 0 0 0 -3.605-3.6 3.6 3.6 0 0 1 -3.605-3.605v-28.585a3.6 3.6 0 0 0 -3.6-3.605z"/><circle cx="64" cy="39.145" r="7.676" transform="matrix(.987 -.16 .16 .987 -5.444 10.757)"/></g></g><path d="m2.25 64a61.75 61.75 0 1 1 120.906 17.733 1.75 1.75 0 0 1 -3.352-1.006 58.252 58.252 0 1 0 -3.184 8.273 1.75 1.75 0 1 1 3.161 1.5 61.754 61.754 0 0 1 -117.531-26.5zm31.662-36.277a47.118 47.118 0 0 1 3.836-2.872 1.75 1.75 0 1 0 -1.956-2.9 50.6 50.6 0 0 0 -4.124 3.088 1.75 1.75 0 0 0 2.244 2.686zm-6.549 3.877a1.747 1.747 0 0 0 -2.463.237 50.484 50.484 0 1 0 19.244-14.427 1.75 1.75 0 0 0 1.372 3.22 47.186 47.186 0 1 1 -17.916 13.433 1.749 1.749 0 0 0 -.237-2.463zm21.8 25.06v.47a5.358 5.358 0 0 0 5.36 5.35 1.857 1.857 0 0 1 1.85 1.86v28.59a5.356 5.356 0 0 0 5.35 5.35h11.767a5.356 5.356 0 0 0 5.35-5.35v-.47a5.363 5.363 0 0 0 -5.36-5.36 1.852 1.852 0 0 1 -1.85-1.85v-2.26a1.75 1.75 0 0 0 -3.5 0v2.26a5.358 5.358 0 0 0 5.36 5.35 1.858 1.858 0 0 1 1.85 1.86v.47a1.852 1.852 0 0 1 -1.85 1.85h-11.77a1.852 1.852 0 0 1 -1.85-1.85v-28.59a5.363 5.363 0 0 0 -5.36-5.36 1.852 1.852 0 0 1 -1.85-1.85v-.47a1.857 1.857 0 0 1 1.85-1.86h11.77a1.857 1.857 0 0 1 1.85 1.86v17.21a1.75 1.75 0 0 0 3.5 0v-17.21a5.361 5.361 0 0 0 -5.35-5.36h-11.77a5.361 5.361 0 0 0 -5.35 5.36zm14.837-8.089a9.427 9.427 0 1 1 9.426-9.426 9.437 9.437 0 0 1 -9.426 9.426zm0-3.5a5.927 5.927 0 1 0 -5.926-5.926 5.932 5.932 0 0 0 5.926 5.926z" fill="#2b2c3a"/></g></svg>