<svg id="Capa_1" enable-background="new 0 0 512 512" height="512" viewBox="0 0 512 512" width="512" xmlns="http://www.w3.org/2000/svg"><g><g><g><path d="m199.305 498.073v-83.685c-21.918-2.91-39.86-20.587-44.779-41.738 0 0-12.452-38.207-13.248-41.923s-1.474-7.618-1.474-7.618l-2.351-22.564c0-14.527 13.221-24.905 27.333-24.905h54.299c14.764 0 26.732 11.969 26.732 26.732v4.206c0 14.764-11.968 26.733-26.732 26.733h-30.407l-10.173-59.366-5.656-34.808 48.5-3.574h6.864 49.081 77.887l-5.904 129.807c0 22.085-14.483 40.783-34.467 47.127v85.577" fill="#e79d8e"/><path d="m71.91 243.639h367.17v82.377h-367.17z" fill="#00ebc4"/><path d="m75.603 387.634h-31.632c-18.708 0-33.873-15.166-33.873-33.873v-137.867c0-18.708 15.166-33.873 33.873-33.873h31.633c18.708 0 33.873 15.166 33.873 33.873v137.867c0 18.708-15.166 33.873-33.874 33.873z" fill="#00ebc4"/><path d="m468.029 387.634h-31.633c-18.708 0-33.873-15.166-33.873-33.873v-137.867c0-18.708 15.166-33.873 33.873-33.873h31.633c18.708 0 33.873 15.166 33.873 33.873v137.867c0 18.708-15.165 33.873-33.873 33.873z" fill="#00ebc4"/><g fill="#e79d8e"><path d="m175.334 204.8 9.443-1.53c10.598-1.717 20.581 5.483 22.298 16.081l8.96 55.316c2.141 13.219-6.689 26.876-19.623 30.348-12.934 3.472-25.268-4.504-27.409-17.723l-9.75-60.195c-1.717-10.598 5.483-20.581 16.081-22.297z"/><path d="m292.602 200.985 9.517.971c10.681 1.09 18.456 10.631 17.366 21.312l-5.687 55.748c-1.359 13.322-13.428 24.223-26.82 24.223-13.392 0-23.237-10.9-21.878-24.223l6.189-60.664c1.09-10.681 10.632-18.456 21.313-17.367z"/><path d="m344.412 215.557 9.517.971c10.681 1.09 18.456 10.631 17.366 21.312l-5.925 58.081c-1.228 12.039-12.135 21.889-24.236 21.889-14.682 0-25.475-11.95-23.985-26.556l5.951-58.331c1.089-10.68 10.631-18.455 21.312-17.366z"/><path d="m236.205 197.302h9.567c10.736 0 19.44 8.703 19.44 19.44v56.037c0 13.392-10.9 25.461-24.223 26.82-13.323 1.359-24.223-8.486-24.223-21.877v-60.979c0-10.737 8.703-19.441 19.439-19.441z"/><path d="m188.678 333.309h30.407c14.764 0 26.732-11.969 26.732-26.733v-4.206c0-14.764-11.968-26.732-26.732-26.732h-54.299c-14.112 0-27.333 10.378-27.333 24.905l2.351 22.564s.677 3.902 1.474 7.618c.796 3.716 13.248 41.923 13.248 41.923 4.919 21.151 22.861 38.829 44.779 41.738v83.685"/></g></g><g><g fill="#45b1c6"><path d="m163.333 266.293c-.259-7.799-1.664-15.302-3.737-22.654h-53.179v82.377h35.248c-3.796-14.717-7.524-29.492 1.908-43.016 3.429-4.917 7.812-7.017 13.588-7.826 6.178-.867 6.354-3.406 6.172-8.881z"/><path d="m311.854 299.091c-.915-2.025-1.492-4.646-4.194-4.374-2.673.269-5.508 3.169-7.635 4.595-4.894 3.28-11.086 4.826-16.931 3.554-4.892-1.064-8.605-4.151-12.177-7.478-3.393-3.16-7.216-6.824-12.264-6.404-10.258.853-13.892 15.931-16.797 23.686-1.674 4.468-3.779 9.218-6.572 13.346h100.681c-9.486-7.77-19.072-15.765-24.111-26.925z"/><path d="m402.001 243.639h-34.467c1.267 14.998 2.583 29.906.953 44.926.678 1.026.995 2.33.676 3.844-2.347 11.132-12.273 25.934-24.092 28.205 2.248 1.798 4.459 3.586 6.548 5.401h50.381v-82.376z"/></g><path d="m310.57 328.773-.57 12.526c0 14.594-7.764 27.372-19.386 34.435-5.471 3.325-8.691 9.377-8.691 15.779v21.79c0 11.998-9.727 21.725-21.725 21.725h-60.894v63.044h115.506v-85.577c19.984-6.345 34.467-25.042 34.467-47.127l1.664-36.595z" fill="#df768f"/><path d="m468.029 182.02h-17.939c13.584 0 24.597 11.012 24.597 24.597v100.111c0 13.584-11.012 24.597-24.597 24.597h-22.97c-13.584 0-24.597-11.012-24.597-24.597v47.034c0 18.708 15.166 33.873 33.873 33.873h31.632c18.708 0 33.873-15.166 33.873-33.873v-137.868c.001-18.708-15.164-33.874-33.872-33.874z" fill="#45b1c6"/><path d="m75.603 182.02h-17.94c13.584 0 24.597 11.012 24.597 24.597v100.111c0 13.584-11.012 24.597-24.597 24.597h-22.97c-13.584 0-24.597-11.012-24.597-24.597v47.034c0 18.708 15.166 33.873 33.873 33.873h31.632c18.708 0 33.873-15.166 33.873-33.873v-137.868c.003-18.708-15.163-33.874-33.871-33.874z" fill="#45b1c6"/></g><g fill="#4e0325"><path d="m468.029 171.923h-31.632c-24.246 0-43.971 19.725-43.971 43.971v17.648h-11.025c-.457-5.948-2.699-11.611-6.548-16.333-4.984-6.117-12.051-9.926-19.901-10.727l-9.517-.97c-6.426-.658-12.753.775-18.194 4.054-4.123-9.48-13.102-16.534-24.098-17.656l-9.517-.971c-7.851-.803-15.54 1.503-21.656 6.487-.793.646-1.546 1.329-2.26 2.043-5.371-7.423-14.097-12.265-23.939-12.265h-9.567c-11.324 0-21.174 6.408-26.129 15.786-6.495-7.376-16.52-11.369-26.913-9.688l-9.442 1.53c-7.789 1.26-14.619 5.48-19.235 11.878-4.615 6.399-6.462 14.213-5.201 22.001l.782 4.83h-30.493v-17.648c0-24.246-19.725-43.971-43.971-43.971h-31.631c-24.246.001-43.971 19.726-43.971 43.972v137.868c0 24.246 19.725 43.971 43.971 43.971h31.632c24.246 0 43.971-19.725 43.971-43.971v-17.648h12.726c2.494 8.467 9.23 29.246 12.495 39.268 5.412 22.528 23.015 40.842 44.412 47.149v75.543c0 5.576 4.521 10.098 10.098 10.098s10.098-4.521 10.098-10.098v-83.685c0-5.064-3.75-9.343-8.769-10.01-17.231-2.288-32.148-16.275-36.273-34.015-.066-.284-.144-.565-.235-.842-5.904-18.117-12.377-38.395-12.976-40.911-.615-2.87-1.165-5.918-1.34-6.903l-2.252-21.614c.295-8.609 9.046-14.357 17.228-14.357h54.299c5.855 0 11.002 3.047 13.967 7.632-1.35 1.717-2.161 3.877-2.161 6.23 0 3.61 1.9 6.768 4.749 8.554-.797 8.436-7.914 15.06-16.555 15.06h-30.407c-5.577 0-10.098 4.521-10.098 10.098 0 5.576 4.521 10.098 10.098 10.098h5.15c.33.142.67.27 1.021.378 9.263 2.854 16.861 9.143 21.393 17.711 4.533 8.568 5.458 18.388 2.604 27.652-1.641 5.33 1.349 10.981 6.678 12.622.99.306 1.991.451 2.976.451 4.315 0 8.31-2.789 9.647-7.129 4.441-14.419 3.001-29.704-4.054-43.04-1.838-3.473-4.005-6.699-6.451-9.659 4.928-1.178 9.478-3.34 13.42-6.28h99.438l-1.31 28.796c-.007.153-.01.306-.01.458 0 17.224-11.022 32.296-27.425 37.503-4.193 1.331-7.042 5.224-7.042 9.624v85.578c0 5.576 4.521 10.098 10.098 10.098s10.098-4.521 10.098-10.098v-78.684c20.819-9.611 34.375-30.366 34.467-53.781l1.341-29.495h31.71v17.648c0 24.246 19.725 43.971 43.971 43.971h31.632c24.246 0 43.971-19.725 43.971-43.971v-137.868c-.001-24.246-19.726-43.971-43.972-43.971zm-212.114 134.654v-.299c2.33-1.128 4.503-2.506 6.489-4.098.203.238.4.479.61.712 6.083 6.735 14.594 10.445 23.964 10.445 8.045 0 15.724-2.84 21.984-7.562 1.335 3.675 3.31 7.096 5.885 10.144h-60.135c.783-2.985 1.203-6.116 1.203-9.342zm80.623-78.923c1.683-1.371 3.742-2.1 5.884-2.1.32 0 .642.017.965.049h.001l9.516.97c2.482.253 4.718 1.458 6.294 3.393 1.577 1.935 2.305 4.366 2.052 6.849l-5.925 58.081c-.697 6.828-7.328 12.816-14.191 12.816-4.208 0-7.959-1.588-10.563-4.471s-3.803-6.776-3.376-10.962l5.951-58.331c.252-2.482 1.457-4.717 3.392-6.294zm-51.811-14.572c1.683-1.372 3.742-2.101 5.884-2.101.32 0 .643.017.965.049l9.517.971c5.125.523 8.869 5.118 8.346 10.243l-5.688 55.747c-.838 8.212-8.519 15.15-16.774 15.15-3.583 0-6.772-1.344-8.976-3.786-2.205-2.442-3.219-5.75-2.856-9.316l6.189-60.664c.254-2.481 1.459-4.717 3.393-6.293zm-113.862 5.443c1.459-2.023 3.62-3.358 6.084-3.757l9.442-1.53c5.089-.815 9.893 2.645 10.716 7.729l7.22 44.575h-28.618l-6.488-40.058c-.399-2.465.185-4.936 1.644-6.959zm-71.486 135.236c0 13.11-10.666 23.776-23.776 23.776h-31.632c-13.11 0-23.776-10.666-23.776-23.776v-137.867c0-13.11 10.666-23.776 23.776-23.776h31.632c13.11 0 23.776 10.665 23.776 23.776zm27.976-53.217c0 .349.018.699.054 1.046l1.493 14.328h-9.328v-62.181h33.764l2.091 12.912c-16.126 3.895-28.074 17.614-28.074 33.895zm99.508-34.169.001-49.634c0-5.151 4.191-9.342 9.342-9.342h9.567c5.151 0 9.342 4.191 9.342 9.342l-.001 58.634c0 3.581-1.361 6.926-3.646 9.463-5.05-9.289-13.984-16.17-24.605-18.463zm140.063 49.543c4.637-5.245 7.76-11.827 8.489-18.972l4.408-43.209h12.603v62.181zm124.879 37.843c0 13.11-10.666 23.776-23.776 23.776h-31.632c-13.11 0-23.776-10.666-23.776-23.776v-137.867c0-13.11 10.666-23.776 23.776-23.776h31.632c13.11 0 23.776 10.665 23.776 23.776z"/><path d="m471.481 279.228c-3.904 0-7.068 3.164-7.068 7.068v13.588c0 3.904 3.164 7.068 7.068 7.068s7.068-3.164 7.068-7.068v-13.588c0-3.903-3.164-7.068-7.068-7.068z"/><path d="m445.062 309.277c-3.904 0-7.068 3.164-7.068 7.068v13.588c0 3.904 3.164 7.068 7.068 7.068s7.068-3.164 7.068-7.068v-13.588c0-3.904-3.164-7.068-7.068-7.068z"/></g><g><g><path d="m46.239 288.956c-5.577 0-10.098-4.521-10.098-10.098v-17.117c0-5.576 4.521-10.098 10.098-10.098s10.098 4.521 10.098 10.098v17.117c-.001 5.577-4.521 10.098-10.098 10.098z" fill="#fff"/></g><g><path d="m46.239 237.195c-5.577 0-10.098-4.521-10.098-10.098v-3.281c0-5.576 4.521-10.098 10.098-10.098s10.098 4.521 10.098 10.098v3.281c-.001 5.577-4.521 10.098-10.098 10.098z" fill="#fff"/></g></g></g><g><path d="m111.508 6.482-8.904 25.036c-.381 1.072-1.136 1.921-2.088 2.351l-22.244 10.021c-3.143 1.416-3.143 6.423 0 7.839l22.244 10.022c.952.429 1.707 1.279 2.088 2.351l8.904 25.036c1.258 3.537 5.706 3.537 6.964 0l8.904-25.036c.381-1.072 1.136-1.921 2.088-2.351l22.244-10.022c3.143-1.416 3.143-6.423 0-7.839l-22.244-10.021c-.952-.429-1.707-1.279-2.088-2.351l-8.904-25.036c-1.257-3.537-5.706-3.537-6.964 0z" fill="#a2f4e3"/><path d="m381.583 68.247-6.605 18.571c-.283.795-.843 1.425-1.549 1.744l-16.5 7.434c-2.331 1.05-2.331 4.764 0 5.815l16.5 7.434c.706.318 1.266.948 1.549 1.743l6.605 18.571c.933 2.624 4.233 2.624 5.166 0l6.605-18.571c.283-.795.843-1.425 1.549-1.743l16.5-7.434c2.331-1.05 2.331-4.764 0-5.815l-16.5-7.434c-.707-.318-1.266-.949-1.549-1.744l-6.605-18.571c-.933-2.623-4.233-2.623-5.166 0z" fill="#a2f4e3"/><g fill="#00ebc4"><path d="m194.751 111.232c0 10.738 8.705 19.442 19.442 19.442 10.738 0 19.442-8.704 19.442-19.442s-8.704-19.442-19.442-19.442-19.442 8.704-19.442 19.442z"/><ellipse cx="317.022" cy="50.759" rx="8.129" ry="8.129" transform="matrix(.973 -.23 .23 .973 -3.181 74.195)"/></g></g></g></svg>