<?xml version="1.0" encoding="UTF-8"?>
<svg id="Glyph" xmlns="http://www.w3.org/2000/svg" viewBox="0 0 449.77 449.77">
  <defs>
    <style>
      .cls-1 {
        fill: currentcolor;
      }
    </style>
  </defs>
  <path class="cls-1" d="M22.73,287.61l-.88-.88-12.56,12.56c-12.38,12.52-12.38,32.68,0,45.2l96,96c12.52,12.38,32.68,12.38,45.2,0l12.64-12.64c-.22,.15-135.02-134.87-140.4-140.24h0Z"/>
  <path class="cls-1" d="M96.33,214.01c-38.9-38.38-100.62,23.3-62.32,62.24l139.52,139.52c7.63,7.71,18.03,12.04,28.88,12,13.02-.24,25.26-6.28,33.36-16.48,15.97-15.93,16.01-41.79,.08-57.77-.02-.02-.05-.05-.08-.07L96.33,214.01Z"/>
  <path class="cls-1" d="M276.25,34.01c-39.08-38.31-100.55,23.07-62.24,62.32l139.44,139.44c7.67,7.69,18.09,12.01,28.96,12,13.01-.27,25.23-6.31,33.36-16.48,15.92-15.96,15.92-41.8,0-57.76L276.25,34.01Z"/>
  <path class="cls-1" d="M440.49,105.29L344.49,9.29c-12.52-12.38-32.68-12.38-45.2,0l-12.64,12.64c.24-.14,125.66,125.5,140.4,140.24l.88,.88,12.56-12.56c12.38-12.52,12.38-32.68,0-45.2h0Z"/>
  <path class="cls-1" d="M251.29,156.25l-95.04,95.04c12.08,12.07,30.17,30.17,42.24,42.24l95.04-95.04c-6.81-6.99-42.24-42.24-42.24-42.24h0Z"/>
  <path class="cls-1" d="M424.97,67.13l9.44-9.52c26.09-26.62-15.62-68.33-42.24-42.24l-9.44,9.52c6.89,6.93,42.24,42.24,42.24,42.24Z"/>
  <path class="cls-1" d="M24.89,382.73l-9.52,9.44c-18.89,18.33-2.05,50.4,22.48,50.4,11.86,.87,21.64-9.58,29.28-17.6-6.89-6.93-42.24-42.24-42.24-42.24Z"/>
</svg>