<?xml version="1.0" encoding="UTF-8"?>
<svg id="Layer_1" data-name="Layer 1" xmlns="http://www.w3.org/2000/svg" viewBox="0 0 817.38 115.84">
  <defs>
    <style>
      .cls-1 {
        fill: #fff;
      }
    </style>
  </defs>
  <path class="cls-1" d="M0,57.84C0,28.22,21.63,0,52.82,0s52.83,28.21,52.83,57.84-21.63,58-52.83,58S0,87.62,0,57.84ZM52.2,1.25C24.46,1.72,10.35,33.7,10.35,57.84s14.11,56.27,41.85,56.75h.63c28.22,0,42.48-32.29,42.48-56.75S81.05,1.25,52.83,1.25h-.63Zm10.81,55.49c1.25,1.25,1.25,3.13,0,4.23l-8.15,8.15c-1.1,1.1-2.98,1.1-4.08,0l-8.15-8.15c-1.1-1.1-1.1-2.98,0-4.23l8.15-8.15c1.1-1.1,2.98-1.1,4.08,0l8.15,8.15Z"/>
  <path class="cls-1" d="M201.73,57.06c0,24.14-3.92,57.21-34.8,57.69-32.61,.63-44.2-29.94-44.2-57.69V17.4c-.47-6.27-3.45-12.85-7.68-12.85v-1.25h25.55v1.25c-4.39,0-7.21,6.58-7.68,12.85V57.06c0,23.67,3.92,56.75,35.74,55.65,27.59-.94,31.82-32.13,31.82-55.65V16.46c-.31-6.11-2.82-11.91-6.9-11.91v-1.25h15.05v1.25c-4.08,0-6.58,5.8-6.9,11.91V57.06h0Z"/>
  <path class="cls-1" d="M240.9,4.55c-10.19,0-17.71,6.11-21.16,16.77l-.47,1.73-1.25-.31c2.04-6.43,3.92-12.85,5.8-19.44h83.86c2.35,6.74,4.07,12.7,6.11,19.44l-1.1,.31-.63-1.73c-3.45-10.66-10.97-16.77-21.16-16.77h-12.23c-4.23,0-7.21,6.58-7.68,12.85V98.6c.47,6.27,3.45,13.01,7.68,13.01v1.1h-25.55v-1.1c4.39,0,7.37-6.74,7.68-13.01V17.4c-.31-6.27-3.29-12.85-7.68-12.85h-12.22Z"/>
  <path class="cls-1" d="M372.09,3.29h2.82l-49.06,109.41h-2.66L372.09,3.29Z"/>
  <path class="cls-1" d="M472.56,112.7l-20.06-58.78-21.47,58.78h-1.25l-30.89-90.28c-4.86-14.11-9.09-17.87-14.58-17.87v-1.25h25.55v1.25h-.47c-4.23,0-4.86,2.67-.79,14.58l26.81,78.22,16.46-45.14-10.19-29.78c-4.86-14.11-9.09-17.87-14.58-17.87v-1.25h25.55v1.25h-.47c-4.23,0-4.86,2.67-.78,14.58l6.11,17.71,5.48-15.05c4.55-13.48,3.61-17.24,.31-17.24v-1.25h15.2v1.25c-4.23,0-7.84,2.19-10.82,7.53l-9.56,26.49,20.06,58.78,27.59-75.56c4.54-13.48,3.61-17.24,.31-17.24v-1.25h15.2v1.25c-4.23,0-7.84,2.19-10.66,7.53l-36.84,100.63h-1.22v-.02Z"/>
  <path class="cls-1" d="M518.95,57.84c0-29.62,21.63-57.84,52.82-57.84s52.83,28.21,52.83,57.84-21.63,58-52.83,58-52.82-28.22-52.82-58ZM571.15,1.25c-27.74,.47-41.85,32.45-41.85,56.59s14.11,56.27,41.85,56.75h.63c28.22,0,42.48-32.29,42.48-56.75S600,1.25,571.78,1.25h-.63Zm10.81,55.49c1.25,1.25,1.25,3.13,0,4.23l-8.15,8.15c-1.1,1.1-2.98,1.1-4.08,0l-8.15-8.15c-1.1-1.1-1.1-2.98,0-4.23l8.15-8.15c1.1-1.1,2.98-1.1,4.08,0l8.15,8.15Z"/>
  <path class="cls-1" d="M681.49,56.74l15.52,33.7c5.48,11.91,12.07,21.16,16.93,21.16v1.1h-25.55v-1.1c3.76,0,4.55-5.33-.47-16.14l-16.46-36.05c-5.49,1.72-10.82,3.92-15.05,7.84l-4.39,3.29v28.06c.31,6.27,3.29,13.01,7.52,13.01v1.1h-25.55v-1.1c4.39,0,7.37-6.74,7.68-13.01V17.4c-.31-6.27-3.29-12.85-7.68-12.85v-1.25h44.05c6.9,.16,14.74,2.35,20.54,7.21s8.47,11.76,8.15,18.5c-.01,20.05-11.92,24.29-25.24,27.73Zm-25.87,9.57c6.9-5.33,13.79-7.84,19.91-9.88,11.91-3.92,20.85-6.74,20.85-27.43h.16c.16-7.37-1.73-14.89-5.33-19.12-2.98-3.61-7.52-5.17-13.32-5.33h-18.34c-4.23,0-7.21,6.58-7.52,12.85v51.57l3.59-2.66Z"/>
  <path class="cls-1" d="M789.48,3.29h25.55v1.25c-7.68,0-16.3,3.61-26.18,10.97l-17.09,12.7,28.53,62.23c5.64,12.07,12.23,21.16,17.09,21.16v1.1h-25.55v-1.1c3.61,0,4.54-5.33-.47-16.14l-27.9-60.98-22.26,16.77v47.5c.31,6.27,3.29,12.85,7.68,12.85v1.1h-25.55v-1.1c4.23,0,7.21-6.58,7.52-12.85V17.4c-.31-6.27-3.29-12.85-7.52-12.85v-1.25h25.55v1.25c-4.39,0-7.37,6.58-7.68,12.85V49.69l46.87-35.11c4.54-3.45,11.76-10.03,1.41-10.03v-1.26Z"/>
</svg>