<?xml version="1.0" encoding="utf-8"?>
<!-- Generator: Adobe Illustrator 25.2.1, SVG Export Plug-In . SVG Version: 6.00 Build 0)  -->
<svg version="1.1" id="Layer_1" xmlns="http://www.w3.org/2000/svg" xmlns:xlink="http://www.w3.org/1999/xlink" x="0px" y="0px"
	 viewBox="0 0 1920 1080" style="enable-background:new 0 0 1920 1080;" xml:space="preserve">
<style type="text/css">
	.st0{fill:#F6F6F6;}
	.st1{fill:#1D1D1B;}
	.st2{fill:#FFFFFF;}
</style>
<g>
	<path class="st2" d="M551.31,539.92c0-29.62,21.63-57.84,52.82-57.84c31.19,0,52.83,28.21,52.83,57.84c0,29.78-21.63,58-52.83,58
		C572.94,597.92,551.31,569.7,551.31,539.92z M603.51,483.33c-27.74,0.47-41.85,32.45-41.85,56.59c0,24.3,14.11,56.27,41.85,56.75
		h0.63c28.22,0,42.48-32.29,42.48-56.75c0-24.29-14.26-56.59-42.48-56.59H603.51z M614.32,538.82c1.25,1.25,1.25,3.13,0,4.23
		l-8.15,8.15c-1.1,1.1-2.98,1.1-4.08,0l-8.15-8.15c-1.1-1.1-1.1-2.98,0-4.23l8.15-8.15c1.1-1.1,2.98-1.1,4.08,0L614.32,538.82z"/>
	<path class="st2" d="M753.04,539.14c0,24.14-3.92,57.21-34.8,57.69c-32.61,0.63-44.2-29.94-44.2-57.69v-39.66
		c-0.47-6.27-3.45-12.85-7.68-12.85v-1.25h25.55v1.25c-4.39,0-7.21,6.58-7.68,12.85v39.66c0,23.67,3.92,56.75,35.74,55.65
		c27.59-0.94,31.82-32.13,31.82-55.65v-40.6c-0.31-6.11-2.82-11.91-6.9-11.91v-1.25h15.05v1.25c-4.08,0-6.58,5.8-6.9,11.91V539.14z"
		/>
	<path class="st2" d="M792.21,486.63c-10.19,0-17.71,6.11-21.16,16.77l-0.47,1.73l-1.25-0.31c2.04-6.43,3.92-12.85,5.8-19.44h83.86
		c2.35,6.74,4.07,12.7,6.11,19.44l-1.1,0.31l-0.63-1.73c-3.45-10.66-10.97-16.77-21.16-16.77h-12.23c-4.23,0-7.21,6.58-7.68,12.85
		v81.2c0.47,6.27,3.45,13.01,7.68,13.01v1.1h-25.55v-1.1c4.39,0,7.37-6.74,7.68-13.01v-81.2c-0.31-6.27-3.29-12.85-7.68-12.85
		H792.21z"/>
	<path class="st2" d="M923.4,485.37h2.82l-49.06,109.41h-2.66L923.4,485.37z"/>
	<path class="st2" d="M1023.87,594.78L1003.81,536l-21.47,58.78h-1.25L950.2,504.5c-4.86-14.11-9.09-17.87-14.58-17.87v-1.25h25.55
		v1.25h-0.47c-4.23,0-4.86,2.67-0.79,14.58l26.81,78.22l16.46-45.14l-10.19-29.78c-4.86-14.11-9.09-17.87-14.58-17.87v-1.25h25.55
		v1.25h-0.47c-4.23,0-4.86,2.67-0.78,14.58l6.11,17.71l5.48-15.05c4.55-13.48,3.61-17.24,0.31-17.24v-1.25h15.2v1.25
		c-4.23,0-7.84,2.19-10.82,7.53l-9.56,26.49l20.06,58.78l27.59-75.56c4.54-13.48,3.61-17.24,0.31-17.24v-1.25h15.2v1.25
		c-4.23,0-7.84,2.19-10.66,7.53l-36.84,100.63H1023.87z"/>
	<path class="st2" d="M1070.26,539.92c0-29.62,21.63-57.84,52.82-57.84c31.19,0,52.83,28.21,52.83,57.84c0,29.78-21.63,58-52.83,58
		C1091.89,597.92,1070.26,569.7,1070.26,539.92z M1122.46,483.33c-27.74,0.47-41.85,32.45-41.85,56.59
		c0,24.3,14.11,56.27,41.85,56.75h0.63c28.22,0,42.48-32.29,42.48-56.75c0-24.29-14.26-56.59-42.48-56.59H1122.46z M1133.27,538.82
		c1.25,1.25,1.25,3.13,0,4.23l-8.15,8.15c-1.1,1.1-2.98,1.1-4.08,0l-8.15-8.15c-1.1-1.1-1.1-2.98,0-4.23l8.15-8.15
		c1.1-1.1,2.98-1.1,4.08,0L1133.27,538.82z"/>
	<path class="st2" d="M1232.8,538.82l15.52,33.7c5.48,11.91,12.07,21.16,16.93,21.16v1.1h-25.55v-1.1c3.76,0,4.55-5.33-0.47-16.14
		l-16.46-36.05c-5.49,1.72-10.82,3.92-15.05,7.84l-4.39,3.29v28.06c0.31,6.27,3.29,13.01,7.52,13.01v1.1h-25.55v-1.1
		c4.39,0,7.37-6.74,7.68-13.01v-81.2c-0.31-6.27-3.29-12.85-7.68-12.85v-1.25h44.05c6.9,0.16,14.74,2.35,20.54,7.21
		c5.8,4.86,8.47,11.76,8.15,18.5C1258.03,531.14,1246.12,535.38,1232.8,538.82z M1206.93,548.39c6.9-5.33,13.79-7.84,19.91-9.88
		c11.91-3.92,20.85-6.74,20.85-27.43h0.16c0.16-7.37-1.73-14.89-5.33-19.12c-2.98-3.61-7.52-5.17-13.32-5.33h-18.34
		c-4.23,0-7.21,6.58-7.52,12.85v51.57L1206.93,548.39z"/>
	<path class="st2" d="M1340.79,485.37h25.55v1.25c-7.68,0-16.3,3.61-26.18,10.97l-17.09,12.7l28.53,62.23
		c5.64,12.07,12.23,21.16,17.09,21.16v1.1h-25.55v-1.1c3.61,0,4.54-5.33-0.47-16.14l-27.9-60.98l-22.26,16.77v47.5
		c0.31,6.27,3.29,12.85,7.68,12.85v1.1h-25.55v-1.1c4.23,0,7.21-6.58,7.52-12.85v-81.35c-0.31-6.27-3.29-12.85-7.52-12.85v-1.25
		h25.55v1.25c-4.39,0-7.37,6.58-7.68,12.85v32.29l46.87-35.11c4.54-3.45,11.76-10.03,1.41-10.03V485.37z"/>
</g>
</svg>
