<svg height="512" viewBox="0 0 64 64" width="512" xmlns="http://www.w3.org/2000/svg"><g id="Muscle"><path d="m62.12 29.03a15.04348 15.04348 0 0 0 -11.36-8.35c-5.46-.7-14.93 2.95-19.35 10.22a22.81564 22.81564 0 0 1 11.39 8.42.99543.99543 0 0 1 -.31 1.38 1.014 1.014 0 0 1 -1.38-.31 20.145 20.145 0 0 0 -10.64-7.72c0 .01-.00995.01-.00995.02a20.30349 20.30349 0 0 0 -10.29-.21.0098.0098 0 0 0 -.01-.01 29.29216 29.29216 0 0 0 -5.09 1.71 1.00063 1.00063 0 1 1 -.81-1.83 31.36923 31.36923 0 0 1 4.92-1.7 28.68552 28.68552 0 0 1 -2.29005-13.45l3.78.75-1.63-5.06a1.00622 1.00622 0 0 1 .41-1.15l2.42-1.58a1.00132 1.00132 0 0 1 1.09 1.68l-1.78 1.16 1.36 4.24 2-1.2a5.97528 5.97528 0 0 0 2.89-5.81 16.73713 16.73713 0 0 0 -3.68-7.89.98428.98428 0 0 0 -.93-.32l-11 2a1.00943 1.00943 0 0 0 -.56.31c-10.46 11.51-11.23 39.46-11.26 40.65a1.0377 1.0377 0 0 0 .21.63c.47.62 11.91 15.34 29.73 16.39h.06a1.1006 1.1006 0 0 0 .18-.02 19.71234 19.71234 0 0 0 9.1-4.73 24.85364 24.85364 0 0 1 -6.33-4.06 1.00591 1.00591 0 0 1 -.05-1.41 1.01816 1.01816 0 0 1 1.42-.05 22.46223 22.46223 0 0 0 6.43 3.99l.01-.01c5.34 2.15 13.93 2.91 20.67-9.18a19.63117 19.63117 0 0 0 2.58-9.57 17.49788 17.49788 0 0 0 -1.89-7.93zm-47.61 22.61a.99677.99677 0 0 1 -.83.45 1.023 1.023 0 0 1 -.56-.17 47.64874 47.64874 0 0 1 -8.82-7.65 1.00235 1.00235 0 1 1 1.5-1.33 45.16008 45.16008 0 0 0 8.43 7.32.99662.99662 0 0 1 .28 1.38zm43.6-19.46a1.02947 1.02947 0 0 1 -.45.11.98106.98106 0 0 1 -.88995-.55 9.05568 9.05568 0 0 0 -6.76-5.11.9979.9979 0 1 1 .25-1.98 10.99969 10.99969 0 0 1 8.29 6.19.99823.99823 0 0 1 -.44005 1.34z"/></g></svg>