<svg id="Capa_1" enable-background="new 0 0 511.94 511.94" height="512" viewBox="0 0 511.94 511.94" width="512" xmlns="http://www.w3.org/2000/svg"><g><path d="m421.616 7.5h-90.353c-16.633 0-30.117 13.484-30.117 30.118 0 16.634 13.484 30.118 30.117 30.118l42.017 16.414 48.336-16.414c16.634 0 30.118-13.484 30.118-30.118 0-16.634-13.484-30.118-30.118-30.118z" fill="#a8e1f6"/><path d="m229.616 199.5h293.647v60.235h-293.647z" fill="#9c9c9c" transform="matrix(0 1 -1 0 606.058 -146.822)"/><path d="m481.855 353.851c0 16.64-13.49 30.12-30.12 30.12h-15.06l-73.18 24.7-2.66-.99-26.18-9.72-.36-13.99-1.58-60.24h119.02c8.32 0 15.84 3.37 21.3 8.82 5.45 5.46 8.82 12.98 8.82 21.3z" fill="#a8e1f6"/><path d="m360.835 407.681-65.2-24.22c-7-1.29-13.15-5.01-17.56-10.25-4.4-5.23-7.05-11.98-7.05-19.36 0-16.63 13.49-30.12 30.12-30.12h31.57c16.18 25.059 25.85 53.76 28.12 83.95z" fill="#91d4f2"/><path d="m466.795 414.091c0 16.63-13.49 30.12-30.12 30.12h-15.06l-45.18 26.2-19.58-8.52-20.76-9.03-.23-8.65-1.21-46.25-.36-13.99h102.38c8.32 0 15.84 3.37 21.3 8.82 5.45 5.45 8.82 12.98 8.82 21.3z" fill="#91d4f2"/><path d="m361.365 421.621c0 13.62-1.51 27.11-4.51 40.27l-40.65-17.68c-8.31 0-15.85-3.37-21.3-8.82-5.45-5.46-8.82-12.98-8.82-21.3 0-16.64 13.49-30.12 30.12-30.12h41.28c2.56 12.24 3.88 24.839 3.88 37.65z" fill="#78cbed"/><path d="m436.675 67.735h-120.47c-16.633 0-30.118 13.484-30.118 30.118 0 16.633 13.484 30.118 30.118 30.118l60.235 22.592 60.235-22.592c16.634 0 30.118-13.484 30.118-30.118 0-16.633-13.484-30.118-30.118-30.118z" fill="#91d4f2"/><path d="m451.735 474.321c0 8.32-3.37 15.85-8.82 21.3-5.46 5.45-12.98 8.82-21.3 8.82h-84.17l-1.35-51.58-.23-8.65h85.75c16.63 0 30.12 13.479 30.12 30.11z" fill="#a8e1f6"/><path d="m359.955 444.211c-1.32 10.62-3.59 21.09-6.78 31.31-3.38 10.85-8.78 20.61-15.73 28.92h-6.18c-16.64 0-30.12-13.479-30.12-30.12 0-16.63 13.48-30.11 30.12-30.11z" fill="#91d4f2"/><path d="m180.675 150.561c-4.99 0-9.92.22-14.78.65 0 0-45.94 27.01-1.16 45.479 5.23-.64 10.56-.96 15.94-.96 27.71 0 54.25 8.55 72.84 23.46 3.33 2.67 7.56 6.49 11.42 11.271 9.36 11.57 7.71 29.61-3.41 39.06-8.43 7.16-21.07 16.13-39.42 26.16-9.08 4.97-18 9.36-25.96 13.02-5.77 2.66-11.02 4.95-15.47 6.81-1.77-.74-3.67-1.55-5.68-2.42-3.07 17.58-6.77 34.73-10.24 49.49 9.73 4.1 15.92 6.33 15.92 6.33s.65-.23 1.85-.68c16.22-6.13 133.68-52.36 133.68-108.49 0-60.301-60.68-109.18-135.53-109.18z" fill="#928cd9"/><path d="m196.145 308.701c-3.09 18.75-7.94 39.14-13.62 59.53-1.2.45-1.85.68-1.85.68s-135.53-48.88-135.53-109.17c0-56.28 52.85-102.61 120.75-108.53-3.66 12.01-6.27 28.6-1.16 45.479-21.77 2.6-41.93 10.48-56.91 22.5-3.32 2.67-7.55 6.49-11.41 11.271-9.36 11.57-7.71 29.61 3.41 39.06 8.42 7.16 21.07 16.13 39.42 26.16 15.65 8.56 30.83 15.39 41.43 19.83 4.45-1.86 9.7-4.15 15.47-6.81z" fill="#827cd2"/><path d="m331.265 421.621c0 15.65-2.39 30.74-6.82 44.93-7.05 22.6-28.12 37.89-51.8 37.89h-99.13c-156.85-101.21-26.31-229.67-26.31-229.67 10.91-2.48 22.26-3.77 33.92-3.74 83.17.24 150.14 67.409 150.14 150.59z" fill="#a29cde"/><path d="m173.515 504.44h-84.82c-23.7 0-44.77-15.33-51.82-37.96-4.41-14.17-6.79-29.24-6.79-44.86 0-71.67 50.06-131.64 117.12-146.85-12.72 49.591-28.31 150.581 26.31 229.67z" fill="#928cd9"/><ellipse cx="97.669" cy="401.81" fill="#fff" rx="30.834" ry="24.555"/><ellipse cx="264.799" cy="401.81" fill="#fff" rx="30.834" ry="24.555"/><path d="m271.028 158.088c0 16.634 13.484 30.118 30.118 30.118h150.588c16.634 0 30.118-13.484 30.118-30.118 0-16.633-13.484-30.118-30.118-30.118h-150.588c-16.634.001-30.118 13.485-30.118 30.118z" fill="#a8e1f6"/></g><g><path d="m451.795 316.23c-13.761 0-26.283-.002-37.68-.004v-120.52h37.679c41.617 0 52.362-58.304 13.055-72.896 17.667-19.879 9.597-51.082-15.059-60.235 21.348-24.022 4.468-62.575-28.114-62.575h-29.983c-4.142 0-7.5 3.357-7.5 7.5s3.358 7.5 7.5 7.5h29.983c29.935 0 29.897 45.235 0 45.235h-90.353c-29.936 0-29.898-45.235 0-45.235h30.064c4.142 0 7.5-3.357 7.5-7.5s-3.358-7.5-7.5-7.5h-30.064c-32.527 0-49.487 38.525-28.114 62.575-24.664 9.156-32.721 40.361-15.059 60.235-16.778 6.229-27.328 23.733-23.925 42.133-93.458-54.951-226.521-.803-226.521 94.797 0 17.482 9.598 35.233 28.551 52.849-41.295 43.3-52.856 103.579-36.478 156.127 8.056 25.853 31.758 43.223 58.979 43.223h46.278c4.142 0 7.5-3.357 7.5-7.5s-3.358-7.5-7.5-7.5h-46.278c-20.619 0-38.566-13.136-44.658-32.686-28.699-92.085 40.15-185.725 136.631-185.725 20.017 0 39.565 4.068 57.622 11.981.352.192.719.349 1.094.481 38.365 17.201 68.734 51.56 79.807 94.466.055.274.126.541.21.804 6.453 25.622 5.739 52.896-2.116 78.057-2.719 8.71-7.803 16.138-14.428 21.7-.155.104-.473.282-1.095.898-8.051 6.35-18.208 10.023-29.115 10.023h-106.803c-4.142 0-7.5 3.357-7.5 7.5s3.358 7.5 7.5 7.5h106.804c12.22 0 23.725-3.508 33.429-9.701 6.85 6.159 15.836 9.703 25.186 9.703h90.35c32.621 0 49.448-38.572 28.117-62.569 24.664-9.158 32.721-40.365 15.057-60.239 39.323-14.598 28.55-72.902-13.053-72.902zm-52.68-.008c-17.933-.006-41.208-.018-45.23-.019v-120.497h45.23zm-100.298.145c-1.158-1.297-2.336-2.582-3.541-3.846 18.912-17.592 28.489-35.321 28.489-52.781 0-23.147-8.169-45.216-23.384-64.055 1.416.03-4.641.021 38.504.021v120.492c-25.792-.006-35.695.018-40.068.169zm17.447-241.132h120.471c29.935 0 29.898 45.235 0 45.235h-120.471c-29.935.001-29.898-45.235 0-45.235zm-15.058 60.236h150.588c29.936 0 29.897 45.235 0 45.235h-150.588c-12.471 0-22.618-10.146-22.618-22.618 0-12.471 10.146-22.617 22.618-22.617zm-248.501 124.269c0-56.066 57.434-101.68 128.03-101.68s128.03 45.613 128.03 101.68c0 13.332-8.19 27.576-24.354 42.399-8.582-7.463-17.854-13.908-27.664-19.286 3.517-2.574 6.761-5.12 9.695-7.618 14.27-12.127 16.277-34.791 4.388-49.486-40.647-50.336-140.331-49.359-180.185-.005-12.437 15.372-12.194 37.893 14.136 57.153-9.8 5.384-19.068 11.839-27.656 19.313-16.208-14.848-24.42-29.115-24.42-42.47zm67.58 15.707c-12.881-8.666-32.632-22.157-17.975-40.274 34.385-42.582 122.453-42.596 156.854.005 6.782 8.384 5.643 21.761-2.441 28.632-4.406 3.751-9.614 7.647-15.501 11.61-37.777-15.576-81.807-16.155-120.937.027zm301.39 221.493h-90.35c-4.963 0-9.635-1.567-13.471-4.424 10.666-11.378 14.864-23.999 18.102-40.805h85.719c29.942 0 29.901 45.229 0 45.229zm15.06-60.229c-43.95 0-93.392-.006-98.652-.003 1.378-14.54.891-29.547-2.109-45.237h100.761c29.937 0 29.901 45.24 0 45.24zm15.06-60.24c-14.109 0-101.28 0-119.458 0-4.763-16.135-12.085-31.389-21.768-45.257 16.039-.046 44.822.017 141.226.017 29.938-.001 29.901 45.24 0 45.24z"/><path d="m108.198 365.87v12c0 4.143 3.358 7.5 7.5 7.5s7.5-3.357 7.5-7.5v-12c0-4.143-3.358-7.5-7.5-7.5s-7.5 3.358-7.5 7.5z"/><path d="m204.242 382.724c2.721-3.122 2.396-7.86-.727-10.581-3.122-2.721-7.86-2.397-10.582.727-6.152 7.062-17.108 7.083-23.279.001-2.721-3.123-7.459-3.449-10.581-.727-3.123 2.721-3.448 7.459-.727 10.581 12.119 13.908 33.741 13.948 45.896-.001z"/><path d="m242.799 377.536c0-3.532 2.874-6.406 6.406-6.406s6.406 2.874 6.406 6.406c0 4.143 3.358 7.5 7.5 7.5s7.5-3.357 7.5-7.5c0-11.804-9.603-21.406-21.406-21.406s-21.406 9.602-21.406 21.406c0 4.143 3.358 7.5 7.5 7.5s7.5-3.357 7.5-7.5z"/></g></svg>